<?xml version="1.0" standalone="no"?>
<!DOCTYPE svg PUBLIC "-//W3C//DTD SVG 20010904//EN"
 "http://www.w3.org/TR/2001/REC-SVG-20010904/DTD/svg10.dtd">
<svg version="1.0" xmlns="http://www.w3.org/2000/svg"
 width="424.000000pt" height="424.000000pt" viewBox="0 0 424.000000 424.000000"
 preserveAspectRatio="xMidYMid meet">
<metadata>
Created by potrace 1.11, written by Peter Selinger 2001-2013
</metadata>
<g transform="translate(0.000000,424.000000) scale(0.100000,-0.100000)"
fill="#000000" stroke="none">
<path d="M3144 4229 c-51 -9 -98 -29 -153 -63 -37 -24 -48 -26 -99 -20 -31 3
-59 8 -62 9 -3 2 -25 6 -50 10 -25 4 -48 9 -52 11 -9 6 -197 6 -243 0 -16 -2
-59 -7 -94 -11 -132 -15 -228 -52 -352 -136 -32 -21 -64 -39 -71 -39 -7 0 -39
9 -72 19 -56 17 -132 20 -177 6 -35 -12 -51 -69 -55 -195 -2 -86 1 -123 13
-147 24 -51 37 -57 123 -55 71 2 79 0 93 -21 11 -16 33 -27 73 -36 199 -45
607 -182 682 -230 7 -4 20 -39 29 -77 12 -53 23 -76 48 -100 48 -45 145 -78
222 -76 35 1 64 -1 64 -6 13 -77 23 -332 13 -332 -5 0 -18 21 -28 48 -59 144
-242 309 -400 361 -88 29 -116 33 -256 33 -226 0 -440 -68 -605 -191 -112 -84
-159 -153 -206 -296 -21 -61 -21 -62 -71 -74 -72 -19 -118 -69 -188 -208 -19
-36 -27 -42 -63 -48 -65 -11 -127 -45 -184 -100 -40 -39 -55 -62 -68 -107
l-16 -57 -55 -11 c-98 -21 -139 -45 -179 -105 -8 -11 -32 -98 -53 -194 -27
-119 -47 -182 -61 -200 -12 -14 -34 -44 -49 -67 -23 -35 -34 -42 -82 -53 -62
-15 -151 -75 -174 -119 -7 -15 -16 -46 -19 -70 -3 -32 -13 -50 -40 -76 -50
-47 -65 -117 -41 -197 20 -68 97 -109 218 -115 58 -3 71 -7 85 -26 9 -13 16
-27 16 -32 0 -5 -38 -33 -85 -62 -104 -66 -139 -99 -169 -159 -20 -41 -23 -60
-21 -139 1 -50 2 -98 2 -106 0 -8 4 -30 10 -48 12 -40 76 -78 136 -81 28 -1
60 -12 92 -32 54 -33 88 -40 139 -26 61 16 71 16 108 1 25 -11 57 -14 99 -11
75 5 138 35 349 162 l152 92 45 -57 c92 -114 208 -108 332 19 65 66 76 185 25
267 -65 103 -112 134 -214 140 -33 1 -63 3 -67 3 -5 1 -8 9 -8 19 0 9 -14 46
-30 80 -17 35 -30 77 -30 92 l0 29 38 -15 c20 -8 52 -22 69 -30 140 -64 276
-93 346 -75 25 6 51 11 57 11 16 0 92 -77 127 -129 l31 -45 -34 -64 c-50 -94
-43 -180 23 -270 35 -46 125 -87 219 -98 40 -5 286 -12 445 -13 90 -1 104 -14
124 -115 18 -88 28 -100 114 -141 50 -24 113 -33 161 -22 73 16 203 82 245
124 50 50 113 144 131 196 26 74 1 179 -51 213 -20 13 -24 23 -23 62 3 83 -41
145 -119 167 -34 9 -39 16 -58 68 -42 119 -110 168 -225 163 -36 -2 -132 -22
-215 -44 -82 -22 -158 -42 -168 -44 -14 -2 -34 24 -88 116 -41 69 -67 125 -64
135 12 37 51 70 90 76 22 3 63 12 91 20 67 19 150 92 163 143 9 32 24 144 24
179 0 6 29 26 64 43 87 44 111 71 174 197 60 117 84 194 81 260 l-1 42 76 40
c78 41 92 41 93 0 0 -31 29 -44 177 -82 52 -13 86 0 106 40 29 56 87 268 81
298 -3 16 -7 31 -9 33 -5 5 61 61 142 121 77 56 129 112 187 203 55 86 75 181
78 358 2 127 -13 189 -71 292 -28 51 -45 91 -41 98 4 7 7 42 6 79 -2 69 -34
149 -72 182 -28 24 -78 38 -123 35 l-41 -3 -1 58 c-1 33 -3 64 -4 69 -1 6 -3
14 -4 20 0 5 -18 27 -39 48 -48 49 -120 74 -212 74 -61 0 -69 2 -78 23 -41 90
-137 134 -248 114z"/>
</g>
</svg>
